# xmcd
#
# Track frame offsets:
#	150
#	15757
#	32114
#	47663
#	61307
#	79225
#	95529
#	112317
#	126712
#	145761
#	168033
#	190447
#	202453
#	213636
#	236816
#	250778
#
# Disc length: 3581 seconds
#
# Revision: 0
# Processed by: cddbd v1.5.2PL0 Copyright (c) Steve Scherf et al.
# Submitted via: EZCDAudioConverter 3.1.7.1
#
DISCID=f00dfb10
DTITLE=10YearsEastblock2
DYEAR=1900
DGENRE=
TTITLE0=Kazak System - Taka Spokuslyva
TTITLE1=Haydamaky - Wooden Shields
TTITLE2=Figli de madre ignota - Tagliatella Punk
TTITLE3=Intim Torna Illegal - Hipnotizör király
TTITLE4=Little Cow - Ezt is elviszem magammal
TTITLE5=Shukar Collective - Asta Seara
TTITLE6=Mov.Sessian Project - Tsumpa
TTITLE7=La Minor - Fotografia
TTITLE8=St.Petersburg Ska Jazz Review - Water Taxi
TTITLE9=Markscheider Kunst - Navsegda
TTITLE10=Tresmuchachos and Companeros - Tjamnajo Noch
TTITLE11=Lyapis Trubetskoy - Ne byits skotam!
TTITLE12=Brutto - Underdog
TTITLE13=Shazalakazoo - We are the people
TTITLE14=Di Meschugeles - Odessa Bulgar
TTITLE15=Skazka Orchestra - Modest(KomodoreK Remix)
EXTD=
EXTT0=
EXTT1=
EXTT2=
EXTT3=
EXTT4=
EXTT5=
EXTT6=
EXTT7=
EXTT8=
EXTT9=
EXTT10=
EXTT11=
EXTT12=
EXTT13=
EXTT14=
EXTT15=
PLAYORDER=
